<svg width="20" height="20" viewBox="0 0 20 20" fill="none" xmlns="http://www.w3.org/2000/svg">
<path d="M10 18.3334C14.6025 18.3334 18.3333 14.6025 18.3333 10C18.3333 5.39752 14.6025 1.66669 10 1.66669C5.39751 1.66669 1.66667 5.39752 1.66667 10C1.66667 14.6025 5.39751 18.3334 10 18.3334Z" fill="url(#paint0_radial_101_103)"/>
<path d="M8.75 4.16669C8.05958 4.16669 7.5 4.72627 7.5 5.41669C7.5 6.1071 8.05958 6.66669 8.75 6.66669C9.44042 6.66669 10 6.1071 10 5.41669C10 4.72627 9.44042 4.16669 8.75 4.16669Z" fill="url(#paint1_radial_101_103)"/>
<path d="M5.41666 9.16669C4.95624 9.16669 4.58333 9.5396 4.58333 10C4.58333 10.4604 4.95624 10.8334 5.41666 10.8334C5.87708 10.8334 6.24999 10.4604 6.24999 10C6.24999 9.5396 5.87708 9.16669 5.41666 9.16669Z" fill="url(#paint2_radial_101_103)"/>
<path d="M15.2083 8.33331C14.8633 8.33331 14.5833 8.61331 14.5833 8.95831C14.5833 9.30331 14.8633 9.58331 15.2083 9.58331C15.5533 9.58331 15.8333 9.30331 15.8333 8.95831C15.8333 8.61331 15.5533 8.33331 15.2083 8.33331Z" fill="url(#paint3_radial_101_103)"/>
<defs>
<radialGradient id="paint0_radial_101_103" cx="0" cy="0" r="1" gradientUnits="userSpaceOnUse" gradientTransform="translate(5.66834 6.2521) rotate(180) scale(14.0362)">
<stop offset="0.212" stop-color="#5059C9"/>
<stop offset="0.373" stop-color="#545DCB"/>
<stop offset="0.524" stop-color="#5F68D1"/>
<stop offset="0.672" stop-color="#727ADA"/>
<stop offset="0.818" stop-color="#8D94E8"/>
<stop offset="0.96" stop-color="#AFB5F9"/>
<stop offset="1" stop-color="#BAC0FF"/>
</radialGradient>
<radialGradient id="paint1_radial_101_103" cx="0" cy="0" r="1" gradientUnits="userSpaceOnUse" gradientTransform="translate(9.19388 6.19819) scale(2.16001)">
<stop offset="0.313" stop-color="#3F41A1" stop-opacity="0"/>
<stop offset="1" stop-color="#3F41A1"/>
</radialGradient>
<radialGradient id="paint2_radial_101_103" cx="0" cy="0" r="1" gradientUnits="userSpaceOnUse" gradientTransform="translate(5.71249 10.5209) scale(1.44)">
<stop offset="0.313" stop-color="#3F41A1" stop-opacity="0"/>
<stop offset="1" stop-color="#3F41A1"/>
</radialGradient>
<radialGradient id="paint3_radial_101_103" cx="0" cy="0" r="1" gradientUnits="userSpaceOnUse" gradientTransform="translate(15.4304 9.34915) scale(1.08)">
<stop offset="0.313" stop-color="#3F41A1" stop-opacity="0"/>
<stop offset="1" stop-color="#3F41A1"/>
</radialGradient>
</defs>
</svg>
